<?xml version="1.0" encoding="UTF-8"?>
<svg width="31px" height="36px" viewBox="0 0 31 36" version="1.1" xmlns="http://www.w3.org/2000/svg" xmlns:xlink="http://www.w3.org/1999/xlink">
    <!-- Generator: Sketch 52.4 (67378) - http://www.bohemiancoding.com/sketch -->
    <title>002-shield copy 5</title>
    <desc>Created with Sketch.</desc>
    <g id="Page-1" stroke="none" stroke-width="1" fill="none" fill-rule="evenodd">
        <g id="Perfil-Usuario---modal-agregar-juego---escolta-Copy-2" transform="translate(-451.000000, -435.000000)" fill="#1D1E1F" fill-rule="nonzero">
            <g id="Group-2" transform="translate(277.000000, 338.000000)">
                <g id="002-shield-copy-5" transform="translate(174.000000, 97.000000)">
                    <path d="M30.9465955,2.21702344 C30.7410348,1.72504688 29.9530522,1.61704688 29.5875855,1.971 C27.9496002,3.29702344 25.8483387,4.0275 23.6589797,4.0275 C20.6424837,4.0275 17.8478372,2.64747656 16.1820921,0.336023438 C16.0304452,0.126 15.7759415,0 15.5018606,0 C15.2293856,0 14.973276,0.126 14.8215526,0.334476563 C13.1525956,2.64747656 10.3546608,4.02595313 7.34145311,4.02595313 C5.12922857,4.02595313 3.00510147,3.27895313 1.35901003,1.92445312 C1.12079517,1.72947656 0.776588087,1.67997656 0.482929962,1.79992969 C0.189271838,1.91995312 0,2.18840625 0,2.48392969 L0,18.7499531 C0,28.1144531 14.4871341,35.5934531 15.1038162,35.9069766 C15.2261737,35.9685 15.3632142,36 15.4986487,36 C15.6340832,36 15.7711237,35.9685 15.8934812,35.9055 C16.5101633,35.5919766 30.9972974,28.1145234 30.9972974,18.7484766 L30.9972974,2.55002344 C31.0070096,2.439 30.9906442,2.32502344 30.9465955,2.21702344 Z M14.6845122,17.920925 L4.07855957,17.920925 C3.86160433,17.920925 3.65436123,17.8414016 3.50103192,17.7019016 C3.34770262,17.5624016 3.26281707,17.3703781 3.26281707,17.1709016 L3.26281707,7.398 C3.26281707,7.16547656 3.38028032,6.948 3.57934076,6.80547656 C3.7784012,6.66147656 4.03451085,6.615 4.28251431,6.67047656 C7.82598901,7.51197656 11.7512193,6.7815 14.6845122,4.75945313 L14.6845122,17.920925 Z M16.3159207,32.1555234 L16.3159207,18 L26.916979,18 C27.3672548,18 27.7327215,18.3360234 27.7327215,18.7500234 C27.7343274,24.7095 19.4286968,30.2790234 16.3159207,32.1555234 Z" id="Shape"></path>
                </g>
            </g>
        </g>
    </g>
</svg>