<?xml version="1.0" encoding="UTF-8"?>
<svg width="29px" height="29px" viewBox="0 0 29 29" version="1.1" xmlns="http://www.w3.org/2000/svg" xmlns:xlink="http://www.w3.org/1999/xlink">
    <!-- Generator: Sketch 52.4 (67378) - http://www.bohemiancoding.com/sketch -->
    <title>icon/letra-M/18px/Manos</title>
    <desc>Created with Sketch.</desc>
    <defs>
        <path d="M26.0255048,19.3059843 L27.9970732,17.3328887 C29.2462931,16.085196 29.2462931,14.052541 27.9970732,12.8033211 C27.6137551,12.420003 27.1540788,12.1512222 26.662332,12.0015601 C27.0639761,11.4548355 27.2823605,10.7981551 27.2823605,10.1078771 C27.2823605,9.25266538 26.9494388,8.44785009 26.344682,7.84309325 C25.7399251,7.2383364 24.9351099,6.90541471 24.0798982,6.90541471 C24.0447734,6.90541471 24.0081215,6.90541471 23.9729967,6.90694187 C24.0004856,6.05173018 23.6889442,5.1873555 23.0383725,4.53678374 C22.3878007,3.88621199 21.5218989,3.57314342 20.6682144,3.60215953 C20.6697415,3.56703477 20.6697415,3.53038284 20.6697415,3.49525807 C20.6697415,2.64004637 20.3368198,1.83523108 19.732063,1.23047424 C18.4843702,-0.017218538 16.4517153,-0.0187457018 15.2024953,1.23047424 L14.5213803,1.91158927 L13.8402653,1.23047424 C13.2355084,0.625717398 12.4306931,0.292795702 11.5754814,0.292795702 C10.7202697,0.292795702 9.91545444,0.625717398 9.3106976,1.23047424 C8.65859868,1.88257316 8.34858444,2.74694784 8.37760056,3.60215953 C8.34094863,3.60063237 8.30582386,3.5991052 8.26917193,3.5991052 C7.41396023,3.5991052 6.60914494,3.9320269 6.0043881,4.53678374 C5.35381635,5.18888266 5.04227494,6.05325734 5.07129105,6.90846904 C5.03463912,6.90694187 4.99951436,6.90541471 4.96286243,6.90541471 C4.10765073,6.90541471 3.30283544,7.2383364 2.6980786,7.84309325 C2.09332175,8.44785009 1.76040006,9.25266538 1.76040006,10.1078771 C1.76040006,10.7981551 1.97725731,11.4563627 2.38042854,12.0015601 C1.88104599,12.1512222 1.42442404,12.4245845 1.04568743,12.8033211 C-0.200478187,14.0494867 -0.202005351,16.0745058 1.03805161,17.3237258 C1.04110594,17.3267801 1.04416026,17.3298344 1.04721459,17.3328887 L3.02183731,19.3075115 C3.02489164,19.3105658 3.02794596,19.3136201 3.02947313,19.3166744 C3.1485919,19.4357932 3.27534649,19.5426947 3.40820974,19.6404332 L2.82330602,20.2253369 C2.25520111,20.7934418 1.96504,21.5677138 2.00932775,22.4045995 C2.05056117,23.2078877 2.39570018,23.9745239 2.98365822,24.5609547 L6.32356532,27.902389 C6.9435938,28.5224175 7.75757208,28.8324317 8.57155035,28.8324317 C9.38552863,28.8324317 10.1995069,28.5224175 10.8195354,27.902389 L12.3726609,26.3492635 C13.0812649,26.5019799 13.8020862,26.578338 14.5244346,26.578338 C15.2467831,26.578338 15.9676044,26.5019799 16.6762083,26.3492635 L18.2278067,27.902389 C18.8478352,28.5224175 19.6618135,28.8324317 20.4757917,28.8324317 C21.28977,28.8324317 22.1037483,28.5224175 22.7237768,27.902389 L26.065211,24.5609547 C27.3037408,23.3224249 27.445767,21.4455407 26.3782796,20.3795804 L25.6666213,19.6679221 L26.0178689,19.3166744 C26.0178689,19.3136201 26.0209233,19.3105658 26.0255048,19.3059843 Z M10.5324286,2.4537324 C10.8103724,2.1757886 11.1814732,2.02154506 11.5754814,2.02154506 C11.9694897,2.02154506 12.3390633,2.17426143 12.6185343,2.4537324 L15.2635819,5.09878 C15.8377954,5.67299357 15.8377954,6.60914494 15.2635819,7.18335851 C14.9856381,7.46130231 14.6145373,7.61554585 14.2220562,7.61554585 C13.828048,7.61554585 13.4584743,7.46282947 13.1805305,7.18335851 L10.5354829,4.53831091 C10.5339558,4.53678374 10.5309014,4.53372942 10.5293743,4.53220225 C9.95668787,3.95646152 9.95974219,3.0264188 10.5324286,2.4537324 Z M7.2215376,7.84156608 C6.65037836,7.26582535 6.65190553,6.33425547 7.22459193,5.76156906 C7.50253573,5.48362526 7.87363652,5.32938173 8.26764477,5.32938173 C8.66165301,5.32938173 9.03122664,5.4820981 9.30917044,5.7600419 C9.30917044,5.7600419 9.30917044,5.7600419 9.30917044,5.7600419 C9.3106976,5.76156906 9.3106976,5.76156906 9.31222477,5.76309623 L11.954218,8.4050895 C11.9557452,8.40661667 11.9572724,8.40814383 11.9587995,8.40967099 L12.6154799,9.0663514 C12.8934237,9.3442952 13.0476673,9.71539599 13.0476673,10.1094042 C13.0476673,10.5034125 12.8949509,10.8729861 12.6154799,11.1509299 C12.3375361,11.4288737 11.9664354,11.5831173 11.5724271,11.5831173 C11.1784189,11.5831173 10.8088452,11.4304009 10.5309014,11.1509299 C10.5278471,11.1478756 10.5232656,11.1448213 10.5202113,11.1402398 L9.87269386,10.4911952 C9.8711667,10.489668 9.8711667,10.489668 9.86963953,10.4881408 L7.22459193,7.84309325 L7.2215376,7.84156608 Z M3.91828243,9.06787857 C4.19622623,8.78993477 4.56579985,8.63569123 4.9598081,8.63569123 C5.35381635,8.63569123 5.72338997,8.7884076 6.00286094,9.06787857 L8.65096287,11.7159805 C9.22212211,12.2901941 9.22212211,13.2232911 8.64790854,13.7975047 C8.36996474,14.0754485 7.99886395,14.229692 7.6048557,14.229692 C7.21084746,14.229692 6.84127383,14.0769756 6.56333003,13.7975047 C6.5602757,13.7944504 6.55722137,13.791396 6.55263988,13.7868145 L3.92591825,11.1600929 C3.92286392,11.1570386 3.91980959,11.1539842 3.91828243,11.1509299 C3.64033863,10.8729861 3.48609509,10.5018853 3.48609509,10.1094042 C3.48609509,9.71539599 3.64033863,9.34582237 3.91828243,9.06787857 Z M2.27352708,16.1203207 C2.27047275,16.1172664 2.26741842,16.1142121 2.26436409,16.1096306 C1.69015053,15.535417 1.69167769,14.6007928 2.26589126,14.0265792 C2.54383506,13.7486354 2.91493585,13.5943919 3.30894409,13.5943919 C3.70295234,13.5943919 4.07252596,13.7471083 4.35199693,14.0265792 L6.33578263,16.0103649 C6.9099962,16.5845785 6.9099962,17.5207299 6.33578263,18.0949435 C6.05783883,18.3728873 5.68673804,18.5271308 5.29425696,18.5271308 C5.22248026,18.5271308 5.15070357,18.5225493 5.08045404,18.5118592 C5.07587254,18.510332 5.06976389,18.510332 5.0651824,18.5088048 C4.76127681,18.4614627 4.48180585,18.3209637 4.25883994,18.1010521 C4.25731278,18.0979978 4.25425845,18.0964706 4.25273129,18.0934163 L2.27352708,16.1203207 Z M12.3207373,24.5624819 C12.3131015,24.5609547 12.3054657,24.5594276 12.299357,24.5579004 C12.2825582,24.5533189 12.2642323,24.5502646 12.2474335,24.5472103 C12.2352162,24.5456831 12.2214717,24.5441559 12.2092544,24.5411016 C12.1955099,24.5395744 12.1802383,24.5380473 12.1664938,24.5365201 C12.1512222,24.534993 12.1359505,24.534993 12.1206789,24.534993 C12.1084616,24.534993 12.0962443,24.534993 12.084027,24.534993 C12.0672282,24.534993 12.0519565,24.5365201 12.0351577,24.5380473 C12.0229404,24.5395744 12.0122503,24.5395744 12.000033,24.5411016 C11.9847613,24.5426288 11.9679625,24.5456831 11.9526909,24.5472103 C11.9404736,24.5487374 11.9282563,24.5517918 11.9160389,24.5548461 C11.9022945,24.5579004 11.8870228,24.5609547 11.8732784,24.5655362 C11.8595339,24.5685906 11.8457894,24.573172 11.8335721,24.5777535 C11.8213548,24.582335 11.8091375,24.5869165 11.7969202,24.5899708 C11.7831757,24.5960795 11.7679041,24.600661 11.7541596,24.6067696 C11.7434694,24.6113511 11.7312521,24.6174598 11.720562,24.6220413 C11.7068175,24.6281499 11.693073,24.6357858 11.6793286,24.6434216 C11.6686384,24.6495302 11.6564211,24.6556389 11.645731,24.6632747 C11.6335137,24.6709105 11.6212963,24.6785463 11.609079,24.6877093 C11.5968617,24.6968723 11.5846444,24.7045081 11.5724271,24.7151983 C11.5632641,24.7228341 11.552574,24.7304699 11.543411,24.7381057 C11.5296665,24.750323 11.515922,24.7625404 11.5021776,24.7747577 C11.4975961,24.7793392 11.4914874,24.7839206 11.4869059,24.7885021 L9.59322289,26.6821852 C9.02817231,27.2472358 8.10729257,27.2472358 7.54224199,26.6821852 L4.20233488,23.3422781 C3.91828243,23.0582256 3.75182158,22.6947606 3.73196845,22.3190784 C3.71516965,21.9769937 3.82512544,21.6685066 4.04350985,21.4501222 L5.23622474,20.2558801 C5.2545507,20.2558801 5.27287667,20.2574073 5.29120263,20.2574073 C6.14641433,20.2574073 6.94970246,19.9244856 7.55598646,19.3197288 C8.48144769,18.3942675 8.71968523,17.0381461 8.27375342,15.889719 C8.87392877,15.7629644 9.42676205,15.4666946 9.8711667,15.02229 C10.3797122,14.5137445 10.6805635,13.87539 10.7752476,13.2141281 C11.0333383,13.2797962 11.3021191,13.3149209 11.5754814,13.3149209 C12.4306931,13.3149209 13.2339813,12.9819992 13.8402653,12.3772424 C14.4450221,11.7724856 14.7779438,10.9676703 14.7779438,10.1124586 C14.7779438,9.83909626 14.7443462,9.5718426 14.677151,9.31375193 C15.358266,9.21754061 15.9889846,8.90447205 16.4837857,8.40814383 C17.7330056,7.16045105 17.7330056,5.12779611 16.4837857,3.88010333 L15.7415841,3.13790175 L16.4226992,2.45678673 C16.9969127,1.88257316 17.9330641,1.88257316 18.5072777,2.45678673 C18.7852215,2.73473053 18.939465,3.10583132 18.939465,3.4983124 C18.939465,3.89232064 18.7867486,4.26189427 18.5072777,4.54136523 C18.3392896,4.70935325 18.2537685,4.93079199 18.2537685,5.15223073 C18.2537685,5.37366947 18.3377625,5.59510822 18.5072777,5.76309623 C18.8447808,6.10059942 19.3915055,6.10059942 19.7290087,5.76309623 C20.3032222,5.18888266 21.2393736,5.18888266 21.8135872,5.76309623 C22.3878007,6.3373098 22.3878007,7.27346117 21.8135872,7.84767474 C21.6455992,8.01566275 21.560078,8.23710149 21.560078,8.45854023 C21.560078,8.67997898 21.644072,8.90141772 21.8135872,9.06940573 C22.1510904,9.40690892 22.697815,9.40690892 23.0353182,9.06940573 C23.313262,8.79146193 23.6843627,8.63721839 24.078371,8.63721839 C24.4723792,8.63721839 24.8419529,8.78993477 25.1198967,9.06940573 C25.3978405,9.34734953 25.552084,9.71845032 25.552084,10.1124586 C25.552084,10.5003582 25.402422,10.8668775 25.1305868,11.1432941 C25.1260053,11.1478756 25.122951,11.1509299 25.1183695,11.1555114 L23.8783125,12.3955684 C23.5698255,12.7040554 23.5392822,13.194275 23.808063,13.5378868 L23.8523508,13.5943919 C24.1196044,13.9380037 24.6021882,14.0281064 24.9763433,13.8051405 C25.5551383,13.4600015 26.2942856,13.5531585 26.7722878,14.0296336 C27.3465014,14.6038471 27.3465014,15.5399985 26.7722878,16.1142121 L24.7885021,18.0979978 C24.7854478,18.1025793 24.7808663,18.1056336 24.7762848,18.1102151 L20.5185523,22.3679476 C18.3866317,24.5013954 15.2437287,25.3428626 12.3207373,24.5624819 Z M25.1519671,21.6028386 C25.5307037,21.9815752 25.384096,22.7940263 24.8388985,23.3392237 L21.4974643,26.6791308 C20.9324137,27.2441814 20.0115339,27.2441814 19.4464834,26.6791308 L18.5271308,25.7597783 C19.7213728,25.2497056 20.8163492,24.5136127 21.7448648,23.5850971 L24.4403088,20.8896531 L25.1519671,21.6028386 Z" id="path-1"></path>
    </defs>
    <g id="UI" stroke="none" stroke-width="1" fill="none" fill-rule="evenodd">
        <g id="Perfil-Escolta---contratación-resumen" transform="translate(-378.000000, -493.000000)">
            <g id="Group-5" transform="translate(242.000000, 161.000000)">
                <g id="icon/letra-M/18px/Manos" transform="translate(136.000000, 332.000000)">
                    <mask id="mask-2" fill="white">
                        <use xlink:href="#path-1"></use>
                    </mask>
                    <g fill-rule="nonzero"></g>
                    <rect id="🎨-color" fill="#191919" fill-rule="evenodd" mask="url(#mask-2)" x="0" y="0" width="29" height="29"></rect>
                </g>
            </g>
        </g>
    </g>
</svg>