<?xml version="1.0" encoding="UTF-8"?>
<svg width="25px" height="29px" viewBox="0 0 25 29" version="1.1" xmlns="http://www.w3.org/2000/svg" xmlns:xlink="http://www.w3.org/1999/xlink">
    <!-- Generator: Sketch 52.4 (67378) - http://www.bohemiancoding.com/sketch -->
    <title>icon/letra-C/18px/Calendario</title>
    <desc>Created with Sketch.</desc>
    <defs>
        <path d="M18.7351175,5.09137163 L10.1722779,5.09137163 L10.1722779,5.95413791 C10.1722779,6.42295895 9.79222334,6.8030135 9.3234023,6.8030135 C8.85458127,6.8030135 8.47452671,6.42295895 8.47452671,5.95413791 L8.47452671,5.09137163 L4.90616241,5.09137163 C4.52302104,5.09137163 4.21162784,5.40276483 4.21162784,5.78590621 L4.21162784,10.2432748 L24.7281792,10.2432748 L24.7281792,5.78590621 C24.7281792,5.40276483 24.416786,5.09137163 24.0336446,5.09137163 L20.4328687,5.09137163 L20.4328687,5.95413791 C20.4328687,6.42295895 20.0528141,6.8030135 19.5839931,6.8030135 C19.1151721,6.8030135 18.7351175,6.42295895 18.7351175,5.95413791 L18.7351175,5.09137163 Z M20.4328687,3.39362045 L24.0336446,3.39362045 C25.354428,3.39362045 26.4259303,4.46512275 26.4259303,5.78590621 L26.4259303,26.5324257 C26.4259303,27.8532091 25.354428,28.9247114 24.0336446,28.9247114 L4.90616241,28.9247114 C3.58537896,28.9247114 2.51387665,27.8532091 2.51387665,26.5324257 L2.51387665,5.78590621 C2.51387665,4.46512275 3.58537896,3.39362045 4.90616241,3.39362045 L8.47452671,3.39362045 L8.47452671,0.88557893 C8.47452671,0.416757887 8.85458127,0.0367033392 9.3234023,0.0367033392 C9.79222334,0.0367033392 10.1722779,0.416757887 10.1722779,0.88557893 L10.1722779,3.39362045 L18.7351175,3.39362045 L18.7351175,0.88557893 C18.7351175,0.416757887 19.1151721,0.0367033392 19.5839931,0.0367033392 C20.0528141,0.0367033392 20.4328687,0.416757887 20.4328687,0.88557893 L20.4328687,3.39362045 Z M24.7281792,11.9410259 L4.21162784,11.9410259 L4.21162784,26.5324257 C4.21162784,26.915567 4.52302104,27.2269602 4.90616241,27.2269602 L24.0336446,27.2269602 C24.416786,27.2269602 24.7281792,26.915567 24.7281792,26.5324257 L24.7281792,11.9410259 Z M15.5325414,20.9514545 C15.5325414,21.4607798 15.4229593,21.8358285 15.2778787,22.187726 C14.8410936,23.2418752 13.7869445,23.9209757 12.4534381,23.9209757 C11.1446263,23.9209757 10.0889337,23.2418752 9.61665024,22.1630315 C9.48391696,21.8481758 9.3990294,21.4962783 9.38668212,21.1443808 C9.37433484,20.9993002 9.4592224,20.9144126 9.60430296,20.9144126 L11.459482,20.9144126 C11.6045625,20.9144126 11.6771028,20.9869529 11.6894501,21.1320335 C11.7141447,21.3141559 11.7743376,21.4962783 11.8468779,21.6290116 C11.9811546,21.8589797 12.1864282,21.9685618 12.4410908,21.9685618 C12.7204481,21.9685618 12.9133743,21.8466324 13.047651,21.6290116 C13.168037,21.4221946 13.2297734,21.1320335 13.2297734,20.8773708 C13.2297734,20.5980136 13.1695804,20.3201997 13.0599983,20.1133828 C12.927265,19.8957619 12.7204481,19.749138 12.430287,19.749138 C12.22347,19.749138 11.9811546,19.9189131 11.7156881,20.1241866 C11.5953021,20.2214215 11.4733727,20.2090742 11.3884851,20.0763409 L10.4794165,18.8030275 C10.394529,18.6702943 10.4192235,18.5607121 10.5396095,18.4758246 L12.2003189,17.4093282 C12.2728591,17.3614824 12.2481646,17.2873988 12.163277,17.2873988 L9.84816176,17.2873988 C9.70308121,17.2873988 9.61819365,17.2025112 9.61819365,17.0574306 L9.61819365,15.5664964 C9.61819365,15.4214159 9.70308121,15.3365283 9.84816176,15.3365283 L15.1574927,15.3365283 C15.3025733,15.3365283 15.3874608,15.4214159 15.3874608,15.5664964 L15.3874608,17.2642476 C15.3874608,17.386177 15.3380717,17.4710646 15.2423803,17.5436048 L14.018456,18.4048277 C13.958263,18.4526734 13.9706103,18.5144098 14.0554979,18.537561 C14.6744053,18.7551818 15.0618013,19.2043142 15.2917694,19.7383341 C15.4476538,20.1041223 15.5325414,20.5038655 15.5325414,20.9514545 Z M17.4340227,15.3396151 L19.3370475,15.3396151 C19.482128,15.3396151 19.5670156,15.4245027 19.5670156,15.5695832 L19.5670156,23.5937727 C19.5670156,23.7388533 19.482128,23.8237408 19.3370475,23.8237408 L17.5189103,23.8237408 C17.3738297,23.8237408 17.2889422,23.7388533 17.2889422,23.5937727 L17.2889422,17.4957591 C17.2889422,17.4355661 17.2519003,17.3985243 17.1917073,17.3985243 L16.234793,17.4355661 C16.0897125,17.4355661 16.0048249,17.3630259 16.0048249,17.2179453 L16.0048249,15.9214808 C16.0048249,15.7887475 16.0773652,15.6915126 16.1992946,15.6544708 L17.1577523,15.3751136 C17.2642476,15.3396151 17.3383313,15.3396151 17.4340227,15.3396151 Z" id="path-1"></path>
    </defs>
    <g id="UI" stroke="none" stroke-width="1" fill="none" fill-rule="evenodd">
        <g id="Perfil-Escolta---contratación-resumen" transform="translate(-380.000000, -563.000000)">
            <g id="Group-5" transform="translate(242.000000, 161.000000)">
                <g id="icon/letra-C/18px/Calendario" transform="translate(136.000000, 402.000000)">
                    <mask id="mask-2" fill="white">
                        <use xlink:href="#path-1"></use>
                    </mask>
                    <g id="Combined-Shape"></g>
                    <rect id="🎨-color" fill="#191919" fill-rule="evenodd" mask="url(#mask-2)" x="0" y="0" width="29" height="29"></rect>
                </g>
            </g>
        </g>
    </g>
</svg>