<?xml version="1.0" encoding="UTF-8"?>
<svg width="29px" height="23px" viewBox="0 0 29 23" version="1.1" xmlns="http://www.w3.org/2000/svg" xmlns:xlink="http://www.w3.org/1999/xlink">
    <!-- Generator: Sketch 52.4 (67378) - http://www.bohemiancoding.com/sketch -->
    <title>icon/letra-T/18px/Television</title>
    <desc>Created with Sketch.</desc>
    <defs>
        <path d="M15.2431957,21.7352701 L15.2431957,23.7009692 C15.3668195,23.7059722 15.490481,23.7121058 15.614169,23.7193686 L24.4791384,24.2367314 C24.8941791,24.2609534 25.2110004,24.6170461 25.1867785,25.0320869 C25.1625565,25.4471276 24.8064638,25.7639489 24.391423,25.7397271 L15.5261852,25.2223486 C14.7838167,25.1787575 14.0432031,25.1790867 13.3058218,25.2236963 L4.58867027,25.7396904 C4.17364973,25.7642566 3.81729421,25.447731 3.79272791,25.0327104 C3.76816161,24.6176899 4.08468731,24.2613344 4.49970783,24.2367681 L13.215882,23.7208326 C13.3896154,23.710322 13.5635462,23.7020877 13.7376427,23.6961255 L13.7376427,21.7315413 C13.496535,21.7371578 13.2549097,21.7457366 13.0127834,21.7572664 L2.2560307,22.2741279 L2.23795569,22.2741279 C1.02685112,22.2741279 0.0959644654,21.1898889 0.0959644654,19.9035664 L0.0959644654,5.61860637 C0.0959644654,4.33274163 1.02787813,3.24804484 2.23795569,3.24804484 L2.25600926,3.24804484 L2.27404208,3.24891029 L13.0830231,3.76766488 C13.9559907,3.81011923 14.8338737,3.81045252 15.7140255,3.76898642 L26.7223437,3.24804484 L26.7401454,3.24804484 C27.9512499,3.24804484 28.8821366,4.33228382 28.8821366,5.61860637 L28.8821358,19.9024135 C28.884106,21.1890419 27.9531264,22.2741279 26.741514,22.2741279 L26.723693,22.2741279 L26.7058917,22.2732845 L15.7849229,21.7559107 C15.6046687,21.7473147 15.4240905,21.7404362 15.2431957,21.7352701 Z M27.3765836,19.9035664 L27.3765836,5.61860637 C27.3765836,5.12406315 27.0730168,4.76366072 26.7535681,4.753805 L15.7850347,5.27286384 C14.8569451,5.31658843 13.9310156,5.31623691 13.0103707,5.27146375 L2.22436001,4.75381172 C1.90569838,4.76383212 1.6015174,5.12480246 1.6015174,5.61860637 L1.6015174,19.9035664 C1.6015174,20.3980032 1.90495358,20.7583569 2.22432679,20.7683613 L12.9408482,20.2534329 C13.9203278,20.206791 14.8925072,20.2060894 15.8564029,20.2520556 L26.7549525,20.7683673 C27.0742989,20.7585069 27.3773407,20.3984489 27.3765836,19.9035664 Z" id="path-1"></path>
    </defs>
    <g id="UI" stroke="none" stroke-width="1" fill="none" fill-rule="evenodd">
        <g id="Perfil-Escolta---contratación-resumen" transform="translate(-378.000000, -427.000000)">
            <g id="Group-5" transform="translate(242.000000, 161.000000)">
                <g id="icon/letra-T/18px/Television" transform="translate(136.000000, 263.000000)">
                    <mask id="mask-2" fill="white">
                        <use xlink:href="#path-1"></use>
                    </mask>
                    <g id="Combined-Shape" fill-rule="nonzero"></g>
                    <rect id="🎨-color" fill="#191919" fill-rule="evenodd" mask="url(#mask-2)" x="0" y="0" width="29" height="29"></rect>
                </g>
            </g>
        </g>
    </g>
</svg>