<?xml version="1.0" encoding="UTF-8"?>
<svg width="31px" height="31px" viewBox="0 0 31 31" version="1.1" xmlns="http://www.w3.org/2000/svg" xmlns:xlink="http://www.w3.org/1999/xlink">
    <!-- Generator: Sketch 52.4 (67378) - http://www.bohemiancoding.com/sketch -->
    <title>001-facebook</title>
    <desc>Created with Sketch.</desc>
    <g id="UI" stroke="none" stroke-width="1" fill="none" fill-rule="evenodd">
        <g id="Home" transform="translate(-908.000000, -1553.000000)">
            <g id="001-facebook" transform="translate(908.000000, 1553.000000)">
                <path d="M27.125,0 L3.875,0 C1.7379375,0 0,1.7379375 0,3.875 L0,27.125 C0,29.2620625 1.7379375,31 3.875,31 L27.125,31 C29.2620625,31 31,29.2620625 31,27.125 L31,3.875 C31,1.7379375 29.2620625,0 27.125,0 Z" id="Path" fill="#1976D2"></path>
                <path d="M26.15625,15.5 L21.3125,15.5 L21.3125,11.625 C21.3125,10.5555 22.1805,10.65625 23.25,10.65625 L25.1875,10.65625 L25.1875,5.8125 L21.3125,5.8125 C18.1020625,5.8125 15.5,8.4145625 15.5,11.625 L15.5,15.5 L11.625,15.5 L11.625,20.34375 L15.5,20.34375 L15.5,31 L21.3125,31 L21.3125,20.34375 L24.21875,20.34375 L26.15625,15.5 Z" id="Path" fill="#FAFAFA"></path>
            </g>
        </g>
    </g>
</svg>