<?xml version="1.0" encoding="UTF-8"?>
<svg width="18px" height="18px" viewBox="0 0 18 18" version="1.1" xmlns="http://www.w3.org/2000/svg" xmlns:xlink="http://www.w3.org/1999/xlink">
    <!-- Generator: Sketch 52.4 (67378) - http://www.bohemiancoding.com/sketch -->
    <title>004-setup</title>
    <desc>Created with Sketch.</desc>
    <g id="Page-1" stroke="none" stroke-width="1" fill="none" fill-rule="evenodd">
        <g id="Home-Copy-4" transform="translate(-746.000000, -228.000000)" fill="#333334" fill-rule="nonzero">
            <g id="Submenu" transform="translate(731.000000, 0.000000)">
                <g id="004-setup" transform="translate(15.000000, 228.000000)">
                    <path d="M15.988696,9.38270428 L18,9.02248892 L17.4487914,5.84420391 L15.4380397,6.20397061 C15.2160097,5.67724749 14.9341643,5.18310807 14.5992967,4.73063765 L15.9117035,3.14205597 L13.477438,1.06746677 L12.1645894,2.65543155 C11.6707661,2.40042622 11.1425889,2.20352196 10.5892262,2.07285065 L10.5892262,0 L7.41071856,0 L7.41071856,2.07285065 C6.85818436,2.20352196 6.32973102,2.40042622 5.83546588,2.65543155 L4.52388755,1.06752285 L2.08829648,3.14199989 L3.40186314,4.73052549 C3.06710606,5.18305199 2.78393505,5.67724749 2.56262312,6.20397061 L0.551981884,5.84420391 L0,9.02248892 L2.01257433,9.38270428 C2.04333818,9.96281756 2.14203656,10.5239751 2.30143417,11.0588301 L0.534031703,12.0952274 L2.12281606,14.8904156 L3.89292487,13.8530088 C4.27501519,14.2673995 4.70620616,14.6352981 5.17534105,14.9470024 L4.47677523,16.8958555 L7.46412725,18 L8.16241692,16.0508104 C8.43708231,16.084011 8.71644237,16.1016208 9.00071801,16.1016208 C9.28377856,16.1016208 9.56319384,16.084011 9.83791447,16.0508104 L10.5365908,17.9999439 L13.5231695,16.8959677 L12.8247142,14.9469463 C13.2951746,14.635242 13.725979,14.2673995 14.1078484,13.8530088 L15.8776258,14.8904156 L17.4667968,12.0952835 L15.6985106,11.0588862 C15.8580739,10.523919 15.9579874,9.96276148 15.988696,9.38270428 Z M5.99712797,8.99534519 C5.99712797,7.31108743 7.34206602,5.94599293 9.00066278,5.94599293 C10.6587625,5.94599293 12.0034243,7.31108743 12.0034243,8.99534519 C12.0034243,10.6793225 10.6587625,12.0443049 9.00066278,12.0443049 C7.34212125,12.0443049 5.99712797,10.6793225 5.99712797,8.99534519 Z" id="Shape"></path>
                </g>
            </g>
        </g>
    </g>
</svg>