<?xml version="1.0" encoding="UTF-8"?>
<svg width="222px" height="45px" viewBox="0 0 222 45" version="1.1" xmlns="http://www.w3.org/2000/svg" xmlns:xlink="http://www.w3.org/1999/xlink">
    <!-- Generator: Sketch 52.4 (67378) - http://www.bohemiancoding.com/sketch -->
    <title>Group 8</title>
    <desc>Created with Sketch.</desc>
    <g id="UI" stroke="none" stroke-width="1" fill="none" fill-rule="evenodd">
        <g id="Home" transform="translate(-40.000000, -18.000000)">
            <g id="Group-8" transform="translate(40.000000, 18.000000)">
                <g id="Logo_verde">
                    <g id="E_abajo" fill="#3EFDD9">
                        <path d="M37,0.296220472 L37,10.0108661 C37,10.0894287 36.9689234,10.1647735 36.9136067,10.2203256 C36.8582901,10.2758778 36.7832646,10.3070866 36.705035,10.3070866 L13.8357576,10.3070866 C13.6728529,10.3070866 13.5407925,10.439709 13.5407925,10.6033071 L13.5407925,33.5699213 C13.5407925,33.7335193 13.6728529,33.8661417 13.8357576,33.8661417 L26.5278788,33.8661417 C26.6907835,33.8661417 26.8228438,33.7335193 26.8228438,33.5699213 L26.8228438,30.6977953 C26.8228438,30.5341972 26.9549042,30.4015748 27.1178089,30.4015748 L36.705035,30.4015748 C36.7832646,30.4015748 36.8582901,30.4327837 36.9136067,30.4883358 C36.9689234,30.5438879 37,30.6192327 37,30.6977953 L37,43.7037795 C37,43.7823421 36.9689234,43.8576869 36.9136067,43.913239 C36.8582901,43.9687911 36.7832646,44 36.705035,44 L3.6586014,44 C3.49569671,44 3.36363636,43.8673776 3.36363636,43.7037795 L3.36363636,10.6899213 C3.36363636,10.5263232 3.23157602,10.3937008 3.06867133,10.3937008 L0.294965035,10.3937008 C0.132060344,10.3937008 0,10.2610784 0,10.0974803 L0,0.296220472 C-1.53205602e-16,0.217657919 0.0310765841,0.142313082 0.0863932585,0.0867609677 C0.141709933,0.031208853 0.216735444,-3.55271368e-15 0.294965035,-3.55271368e-15 L36.705035,-3.55271368e-15 C36.7832646,-4.78357511e-15 36.8582901,0.031208853 36.9136067,0.0867609677 C36.9689234,0.142313082 37,0.217657919 37,0.296220472 Z" id="Path"></path>
                    </g>
                    <g id="G_abajo" transform="translate(44.000000, 0.000000)" fill="#3EFDD9">
                        <path d="M37,0.300359281 L37,13.2245908 C37,13.3904747 36.8673211,13.5249501 36.7036534,13.5249501 L26.9848712,13.5249501 C26.8212035,13.5249501 26.6885246,13.3904747 26.6885246,13.2245908 L26.6885246,10.487984 C26.6885246,10.3221002 26.5558457,10.1876248 26.392178,10.1876248 L20.1030445,10.1876248 C16.9836066,10.1876248 10.3114754,15.0601198 10.3114754,21.9560878 C10.3114754,28.3672655 15.5971897,33.8123752 20.5362998,33.8123752 L26.478829,33.8123752 C26.557425,33.8123752 26.632802,33.7807303 26.6883777,33.7244021 C26.7439535,33.6680738 26.7751756,33.5916762 26.7751756,33.512016 L26.7751756,27.4380838 C26.7751756,27.3584236 26.7439535,27.282026 26.6883777,27.2256977 C26.632802,27.1693695 26.557425,27.1377246 26.478829,27.1377246 L11.0263466,27.1377246 C10.9067742,27.1374915 10.7990546,27.0644485 10.7532131,26.9525169 C10.7073717,26.8405853 10.7323906,26.7116971 10.8166511,26.6257086 L20.2763466,17.0379242 C20.3319824,16.981614 20.4074163,16.9500208 20.4860422,16.9500998 L36.7036534,16.9500998 C36.8673211,16.9500998 37,17.0845752 37,17.2504591 L37,43.6996407 C37,43.8655246 36.8673211,44 36.7036534,44 L19.7564403,44 C11.9578454,44 0,35.2175649 0,22.1317365 C0,13.4371257 5.97892272,0 22.1826698,0 L36.7036534,0 C36.7822494,-3.12014774e-16 36.8576263,0.0316449049 36.9132021,0.0879731967 C36.9687779,0.144301489 37,0.220699047 37,0.300359281 Z" id="Path"></path>
                    </g>
                    <g id="Shield" transform="translate(23.000000, 1.000000)" fill="#FFFFFF" fill-rule="nonzero">
                        <path d="M35.9177885,9.15338583 L35.9177885,9.13779528 C35.9139887,8.87543577 35.7071354,8.661197 35.4452885,8.6484252 C31.4184021,8.39935653 28.159612,5.27683579 27.7355769,1.26110236 C27.7126081,1.0372435 27.5415405,0.857127136 27.3193269,0.822834646 C25.6474038,0.571653543 21.5048077,0.0562992126 18.2596154,0.00433070866 L17.7403846,0 C14.4951923,0.0562992126 10.3525962,0.571653543 8.68067308,0.822834646 C8.45845952,0.857127136 8.28739185,1.0372435 8.26442308,1.26110236 C7.83898902,5.27456101 4.58201742,8.39492648 0.557307692,8.64496063 C0.294389564,8.65910392 0.087622474,8.87514852 0.0848076923,9.13866142 L0.0848076923,9.15338583 C0.0475961538,10.6258268 -0.18,25.4766929 2.33913462,31.007874 C4.99413462,36.8430709 10.2002885,40.2981102 17.7836538,43.8986614 C17.9183548,43.9627484 18.0747222,43.9627484 18.2094231,43.8986614 C25.79625,40.2981102 31.0024038,36.8430709 33.66,31.007874 C36.1825962,25.4766929 35.9567308,10.6249606 35.9177885,9.15338583 Z M25.7927885,35.8955118 C23.9659615,37.3315748 21.6657692,38.7208661 18.4785577,40.3059055 L18.4785577,21.9566929 L3.62682692,21.9566929 C3.52471154,20.9008661 3.43471154,19.7159843 3.36115385,18.3864567 C3.21923077,15.8105512 3.18115385,13.4070079 3.17682692,11.7093701 C3.17712668,11.4935372 3.31723345,11.3028253 3.52298077,11.238189 C6.98667385,10.1220764 9.71077682,7.4193994 10.85625,3.96259843 C10.916522,3.78039339 11.0768382,3.6496636 11.2673077,3.62740157 C13.2031731,3.39787402 15.7352885,3.15968504 17.7940385,3.12677165 L17.9723077,3.12677165 L18.0346154,3.12677165 L18.2128846,3.12677165 L18.4794231,3.1319685 L18.4794231,21.9566929 L32.3731731,21.9566929 C31.9197115,26.6806299 31.2403846,28.8113386 30.8284615,29.7147244 C29.7536538,32.0758268 28.1526923,34.0393701 25.7901923,35.8955118 L25.7927885,35.8955118 Z" id="Shape"></path>
                    </g>
                    <g id="E_arriba" transform="translate(3.000000, 17.000000)" fill="#3EFDD9">
                        <path d="M29.9173846,0.504519231 L20.1820513,10.1682692 C20.1260762,10.223755 20.0501822,10.2548855 19.9710769,10.2548077 L13.8109744,10.2548077 C13.6463085,10.2548077 13.5128205,10.1223012 13.5128205,9.95884615 L13.5128205,0.295961538 C13.5128205,0.132506494 13.6463085,-5.43838479e-14 13.8109744,-5.68434189e-14 L29.7064103,-5.68434189e-14 C29.8267118,0.000229605094 29.9350884,0.0722031949 29.9812094,0.182495946 C30.0273304,0.292788697 30.0021589,0.41978972 29.9173846,0.504519231 Z" id="Path"></path>
                        <path d="M33.7018462,13.4134615 L24.0109744,13.4134615 C23.931899,13.4134615 23.8560624,13.4446431 23.8001478,13.5001467 C23.7442331,13.5556502 23.7128205,13.6309292 23.7128205,13.7094231 L23.7128205,16.5790385 C23.7128205,16.7424935 23.5793325,16.875 23.4146667,16.875 L10.5853333,16.875 C10.4206675,16.875 10.2871795,16.7424935 10.2871795,16.5790385 L10.2871795,4.71634615 L0,4.71634615 L0,26.7040385 C0,26.8674935 0.133488024,27 0.298153846,27 L33.7018462,27 C33.7809215,27 33.8567581,26.9688184 33.9126728,26.9133149 C33.9685875,26.8578113 34,26.7825323 34,26.7040385 L34,13.7094231 C34,13.6309292 33.9685875,13.5556502 33.9126728,13.5001467 C33.8567581,13.4446431 33.7809215,13.4134615 33.7018462,13.4134615 Z" id="Path"></path>
                    </g>
                    <g id="G_Arriba" transform="translate(55.000000, 18.000000)" fill="#3EFDD9">
                        <path d="M15.9632787,10 L0.371584699,10 C0.2509351,9.99976929 0.142245022,9.927448 0.095990574,9.81662243 C0.0497361259,9.70579686 0.0749804575,9.57818231 0.16,9.49304348 L9.70491803,0 L15.9632787,10 Z" id="Path"></path>
                    </g>
                </g>
                <text id="ESCORT-GAMERS" font-family="RobotoCondensed-Bold, Roboto Condensed" font-size="18" font-style="condensed" font-weight="bold" fill="#3EFDD9">
                    <tspan x="96" y="30">ESCORT GAMERS</tspan>
                </text>
            </g>
        </g>
    </g>
</svg>