<?xml version="1.0" encoding="UTF-8"?>
<svg width="67px" height="37px" viewBox="0 0 67 37" version="1.1" xmlns="http://www.w3.org/2000/svg" xmlns:xlink="http://www.w3.org/1999/xlink">
    <!-- Generator: Sketch 52.4 (67378) - http://www.bohemiancoding.com/sketch -->
    <title>Logo_verde</title>
    <desc>Created with Sketch.</desc>
    <g id="UI" stroke="none" stroke-width="1" fill="none" fill-rule="evenodd">
        <g id="Home" transform="translate(-57.000000, -1548.000000)">
            <g id="Logo_verde" transform="translate(57.000000, 1548.000000)">
                <g id="E_abajo" fill="#FFFFFF">
                    <path d="M31,0.242362205 L31,8.19070866 C31,8.25498711 30.9739629,8.31663289 30.9276165,8.36208462 C30.8812701,8.40753635 30.8184108,8.43307087 30.7528671,8.43307087 L11.5921212,8.43307087 C11.4556335,8.43307087 11.3449883,8.54158012 11.3449883,8.67543307 L11.3449883,27.4662992 C11.3449883,27.6001522 11.4556335,27.7086614 11.5921212,27.7086614 L22.2260606,27.7086614 C22.3625483,27.7086614 22.4731935,27.6001522 22.4731935,27.4662992 L22.4731935,25.116378 C22.4731935,24.982525 22.5838386,24.8740157 22.7203263,24.8740157 L30.7528671,24.8740157 C30.8184108,24.8740157 30.8812701,24.8995503 30.9276165,24.945002 C30.9739629,24.9904537 31,25.0520995 31,25.116378 L31,35.7576378 C31,35.8219162 30.9739629,35.883562 30.9276165,35.9290138 C30.8812701,35.9744655 30.8184108,36 30.7528671,36 L3.06531469,36 C2.92882697,36 2.81818182,35.8914907 2.81818182,35.7576378 L2.81818182,8.74629921 C2.81818182,8.61244626 2.70753666,8.50393701 2.57104895,8.50393701 L0.247132867,8.50393701 C0.110645153,8.50393701 0,8.39542775 0,8.2615748 L0,0.242362205 C-1.2836145e-16,0.178083752 0.026037138,0.116437976 0.0723835409,0.0709862463 C0.118729944,0.0255345161 0.181589156,-3.55271368e-15 0.247132867,-3.55271368e-15 L30.7528671,-3.55271368e-15 C30.8184108,-4.55978212e-15 30.8812701,0.0255345161 30.9276165,0.0709862463 C30.9739629,0.116437976 31,0.178083752 31,0.242362205 Z" id="Path"></path>
                </g>
                <g id="G_abajo" transform="translate(36.000000, 0.000000)" fill="#FFFFFF">
                    <path d="M31,0.245748503 L31,10.8201198 C31,10.9558429 30.8888366,11.0658683 30.7517096,11.0658683 L22.6089461,11.0658683 C22.4718191,11.0658683 22.3606557,10.9558429 22.3606557,10.8201198 L22.3606557,8.58107784 C22.3606557,8.44535469 22.2494923,8.33532934 22.1123653,8.33532934 L16.8430913,8.33532934 C14.2295082,8.33532934 8.63934426,12.3219162 8.63934426,17.9640719 C8.63934426,23.2095808 13.0679157,27.6646707 17.206089,27.6646707 L22.1849649,27.6646707 C22.2508156,27.6646707 22.3139692,27.6387794 22.3605327,27.5926926 C22.4070962,27.5466058 22.4332553,27.4840987 22.4332553,27.4189222 L22.4332553,22.4493413 C22.4332553,22.3841648 22.4070962,22.3216577 22.3605327,22.2755709 C22.3139692,22.2294841 22.2508156,22.2035928 22.1849649,22.2035928 L9.2382904,22.2035928 C9.13810814,22.2034022 9.04785656,22.1436397 9.00944885,22.0520593 C8.97104114,21.9604788 8.99200295,21.8550249 9.06259953,21.7846707 L16.9882904,13.9401198 C17.0349042,13.8940478 17.0981056,13.8681989 17.1639813,13.8682635 L30.7517096,13.8682635 C30.8888366,13.8682635 31,13.9782888 31,14.114012 L31,35.7542515 C31,35.8899746 30.8888366,36 30.7517096,36 L16.5526932,36 C10.0187354,36 0,28.8143713 0,18.1077844 C0,10.994012 5.00936768,0 18.5854801,0 L30.7517096,0 C30.8175603,-2.55284815e-16 30.8807139,0.0258912858 30.9272774,0.0719780701 C30.9738409,0.118064854 31,0.180571948 31,0.245748503 Z" id="Path"></path>
                </g>
                <g id="Shield" transform="translate(19.000000, 1.000000)" fill="#000000" fill-rule="nonzero">
                    <path d="M29.9314904,7.48913386 L29.9314904,7.47637795 C29.9283239,7.26172018 29.7559462,7.08643391 29.5377404,7.07598425 C26.1820017,6.8722008 23.4663434,4.3174111 23.1129808,1.03181102 C23.0938401,0.848653773 22.9512837,0.701285838 22.7661058,0.673228346 C21.3728365,0.467716535 17.9206731,0.0460629921 15.2163462,0.00354330709 L15.2163462,0 L14.7836538,0 L14.7836538,0.00354330709 C12.0793269,0.0460629921 8.62716346,0.467716535 7.23389423,0.673228346 C7.04871627,0.701285838 6.90615988,0.848653773 6.88701923,1.03181102 C6.53249085,4.31554992 3.81834785,6.86857621 0.464423077,7.07314961 C0.245324637,7.08472139 0.0730187283,7.26148515 0.0706730769,7.47708661 L0.0706730769,7.48913386 C0.0396634615,8.69385827 -0.15,20.8445669 1.94927885,25.3700787 C4.16177885,30.1443307 8.50024038,32.9711811 14.8197115,35.9170866 C14.9319623,35.9695214 15.0622685,35.9695214 15.1745192,35.9170866 C21.496875,32.9711811 25.8353365,30.1443307 28.05,25.3700787 C30.1521635,20.8445669 29.9639423,8.69314961 29.9314904,7.48913386 Z M21.4939904,29.3690551 C19.9716346,30.5440157 18.0548077,31.6807087 15.3987981,32.9775591 L15.3987981,17.9645669 L3.02235577,17.9645669 C2.93725962,17.1007087 2.86225962,16.1312598 2.80096154,15.0434646 C2.68269231,12.9359055 2.65096154,10.9693701 2.64735577,9.5803937 C2.64760556,9.40380317 2.76436121,9.24776615 2.93581731,9.19488189 C5.82222821,8.28169884 8.09231401,6.07041769 9.046875,3.24212598 C9.09710164,3.09304914 9.23069847,2.9860884 9.38942308,2.96787402 C11.0026442,2.78007874 13.1127404,2.58519685 14.8283654,2.55826772 L14.9769231,2.55826772 L15.0288462,2.55826772 L15.1774038,2.55826772 L15.3995192,2.56251969 L15.3995192,17.9645669 L26.9776442,17.9645669 C26.5997596,21.8296063 26.0336538,23.5729134 25.6903846,24.3120472 C24.7947115,26.2438583 23.4605769,27.8503937 21.4918269,29.3690551 L21.4939904,29.3690551 Z" id="Shape"></path>
                </g>
                <g id="E_arriba" transform="translate(3.000000, 14.000000)" fill="#FFFFFF">
                    <path d="M24.6378462,0.411089744 L16.6205128,8.28525641 C16.5744157,8.330467 16.5119148,8.35583264 16.4467692,8.35576923 L11.3737436,8.35576923 C11.2381364,8.35576923 11.1282051,8.24780098 11.1282051,8.11461538 L11.1282051,0.241153846 C11.1282051,0.107968255 11.2381364,-5.4839324e-14 11.3737436,-5.68434189e-14 L24.4641026,-5.68434189e-14 C24.5631744,0.000187085632 24.6524257,0.0588322329 24.6904077,0.1487004 C24.7283898,0.238568568 24.7076603,0.342050883 24.6378462,0.411089744 Z" id="Path"></path>
                    <path d="M27.7544615,10.9294872 L19.7737436,10.9294872 C19.7086227,10.9294872 19.6461691,10.9548944 19.6001217,11.0001195 C19.5540743,11.0453446 19.5282051,11.106683 19.5282051,11.170641 L19.5282051,13.5088462 C19.5282051,13.6420317 19.4182738,13.75 19.2826667,13.75 L8.71733333,13.75 C8.58172619,13.75 8.47179487,13.6420317 8.47179487,13.5088462 L8.47179487,3.84294872 L0,3.84294872 L0,21.7588462 C0,21.8920317 0.109931314,22 0.245538462,22 L27.7544615,22 C27.8195824,22 27.8820361,21.9745928 27.9280834,21.9293677 C27.9741308,21.8841426 28,21.8228041 28,21.7588462 L28,11.170641 C28,11.106683 27.9741308,11.0453446 27.9280834,11.0001195 C27.8820361,10.9548944 27.8195824,10.9294872 27.7544615,10.9294872 Z" id="Path"></path>
                </g>
                <g id="G_Arriba" transform="translate(46.000000, 15.000000)" fill="#FFFFFF">
                    <path d="M12.9701639,8 L0.301912568,8 C0.203884769,7.99981543 0.11557408,7.9419584 0.0779923414,7.85329794 C0.0404106023,7.76463749 0.0609216217,7.66254585 0.13,7.59443478 L7.8852459,0 L12.9701639,8 Z" id="Path"></path>
                </g>
            </g>
        </g>
    </g>
</svg>