<?xml version="1.0" encoding="UTF-8"?>
<svg width="57px" height="31px" viewBox="0 0 57 31" version="1.1" xmlns="http://www.w3.org/2000/svg" xmlns:xlink="http://www.w3.org/1999/xlink">
    <!-- Generator: Sketch 52.4 (67378) - http://www.bohemiancoding.com/sketch -->
    <title>Logo_verde</title>
    <desc>Created with Sketch.</desc>
    <g id="Page-1" stroke="none" stroke-width="1" fill="none" fill-rule="evenodd">
        <g id="Mobile---home-Copy-3" transform="translate(-16.000000, -15.000000)">
            <g id="Group-5">
                <g id="Logo_verde" transform="translate(16.000000, 15.000000)">
                    <g id="E_abajo" fill="#3EFDD9">
                        <path d="M26,0.201968504 L26,6.82559055 C26,6.87915593 25.9781624,6.93052741 25.9392912,6.96840385 C25.90042,7.00628029 25.8476994,7.02755906 25.7927273,7.02755906 L9.72242424,7.02755906 C9.60795068,7.02755906 9.51515152,7.11798343 9.51515152,7.22952756 L9.51515152,22.8885827 C9.51515152,23.0001268 9.60795068,23.0905512 9.72242424,23.0905512 L18.6412121,23.0905512 C18.7556857,23.0905512 18.8484848,23.0001268 18.8484848,22.8885827 L18.8484848,20.930315 C18.8484848,20.8187708 18.941284,20.7283465 19.0557576,20.7283465 L25.7927273,20.7283465 C25.8476994,20.7283465 25.90042,20.7496252 25.9392912,20.7875017 C25.9781624,20.8253781 26,20.8767496 26,20.930315 L26,29.7980315 C26,29.8515969 25.9781624,29.9029684 25.9392912,29.9408448 C25.90042,29.9787212 25.8476994,30 25.7927273,30 L2.57090909,30 C2.45643552,30 2.36363636,29.9095756 2.36363636,29.7980315 L2.36363636,7.28858268 C2.36363636,7.17703855 2.2708372,7.08661417 2.15636364,7.08661417 L0.207272727,7.08661417 C0.0927991609,7.08661417 0,6.99618979 0,6.88464567 L0,0.201968504 C-1.0765799e-16,0.148403126 0.0218375996,0.097031647 0.0607087763,0.0591552052 C0.0995799529,0.0212787634 0.152300582,-3.55271368e-15 0.207272727,-3.55271368e-15 L25.7927273,-3.55271368e-15 C25.8476994,-4.39193738e-15 25.90042,0.0212787634 25.9392912,0.0591552052 C25.9781624,0.097031647 26,0.148403126 26,0.201968504 Z" id="Path"></path>
                    </g>
                    <g id="G_abajo" transform="translate(31.000000, 0.000000)" fill="#3EFDD9">
                        <path d="M26,0.204790419 L26,9.01676647 C26,9.12986909 25.9067662,9.22155689 25.7917564,9.22155689 L18.9623419,9.22155689 C18.8473322,9.22155689 18.7540984,9.12986909 18.7540984,9.01676647 L18.7540984,7.1508982 C18.7540984,7.03779558 18.6608645,6.94610778 18.5458548,6.94610778 L14.1264637,6.94610778 C11.9344262,6.94610778 7.24590164,10.2682635 7.24590164,14.9700599 C7.24590164,19.3413174 10.9601874,23.0538922 14.4309133,23.0538922 L18.6067447,23.0538922 C18.6619744,23.0538922 18.7149419,23.0323161 18.7539952,22.9939105 C18.7930484,22.9555048 18.8149883,22.9034156 18.8149883,22.8491018 L18.8149883,18.7077844 C18.8149883,18.6534706 18.7930484,18.6013814 18.7539952,18.5629757 C18.7149419,18.5245701 18.6619744,18.502994 18.6067447,18.502994 L7.74824356,18.502994 C7.66421973,18.5028351 7.58852486,18.4530331 7.55631194,18.376716 C7.52409902,18.300399 7.54167989,18.2125208 7.60088993,18.1538922 L14.2482436,11.6167665 C14.287339,11.5783731 14.3403466,11.5568324 14.3955972,11.5568862 L25.7917564,11.5568862 C25.9067662,11.5568862 26,11.648574 26,11.7616766 L26,29.7952096 C26,29.9083122 25.9067662,30 25.7917564,30 L13.882904,30 C8.4028103,30 0,24.011976 0,15.0898204 C0,9.16167665 4.20140515,0 15.587822,0 L25.7917564,0 C25.8469861,-2.12737346e-16 25.8999536,0.0215760715 25.9390069,0.0599817251 C25.9780601,0.0983873786 26,0.150476623 26,0.204790419 Z" id="Path"></path>
                    </g>
                    <g id="Shield" transform="translate(16.000000, 1.000000)" fill="#FFFFFF" fill-rule="nonzero">
                        <path d="M24.9429087,6.24094488 L24.9429087,6.23031496 C24.9402699,6.05143348 24.7966218,5.90536159 24.6147837,5.89665354 C21.8183348,5.726834 19.5552861,3.59784259 19.2608173,0.85984252 C19.2448668,0.707211477 19.1260698,0.584404865 18.9717548,0.561023622 C17.8106971,0.38976378 14.9338942,0.0383858268 12.6802885,0.00295275591 L12.3197115,0 C10.0661058,0.0383858268 7.18930288,0.38976378 6.02824519,0.561023622 C5.87393022,0.584404865 5.75513323,0.707211477 5.73918269,0.85984252 C5.44374238,3.5962916 3.18195654,5.72381351 0.387019231,5.89429134 C0.204437197,5.90393449 0.0608489403,6.05123763 0.0588942308,6.23090551 L0.0588942308,6.24094488 C0.0330528846,7.24488189 -0.125,17.3704724 1.62439904,21.1417323 C3.46814904,25.1202756 7.08353365,27.4759843 12.3497596,29.9309055 C12.4433019,29.9746012 12.5518904,29.9746012 12.6454327,29.9309055 C17.9140625,27.4759843 21.5294471,25.1202756 23.375,21.1417323 C25.1268029,17.3704724 24.9699519,7.24429134 24.9429087,6.24094488 Z M17.9116587,24.4742126 C16.6430288,25.4533465 15.0456731,26.4005906 12.8323317,27.4812992 L12.8323317,14.9704724 L2.51862981,14.9704724 C2.44771635,14.2505906 2.38521635,13.4427165 2.33413462,12.5362205 C2.23557692,10.7799213 2.20913462,9.14114173 2.20612981,7.98366142 C2.20633797,7.83650264 2.30363434,7.70647179 2.44651442,7.66240157 C4.85185684,6.9014157 6.74359501,5.05868141 7.5390625,2.70177165 C7.58091803,2.57754095 7.69224873,2.488407 7.82451923,2.47322835 C9.16887019,2.31673228 10.9272837,2.15433071 12.3569712,2.13188976 L12.4807692,2.13188976 L12.5240385,2.13188976 L12.6478365,2.13188976 L12.8329327,2.13543307 L12.8329327,14.9704724 L22.4813702,14.9704724 C22.1664663,18.1913386 21.6947115,19.6440945 21.4086538,20.2600394 C20.6622596,21.8698819 19.5504808,23.2086614 17.9098558,24.4742126 L17.9116587,24.4742126 Z" id="Shape"></path>
                    </g>
                    <g id="E_arriba" transform="translate(2.000000, 12.000000)" fill="#3EFDD9">
                        <path d="M21.1181538,0.355032051 L14.2461538,7.15544872 C14.206642,7.19449423 14.1530698,7.21640091 14.0972308,7.21634615 L9.74892308,7.21634615 C9.63268838,7.21634615 9.53846154,7.12310084 9.53846154,7.00807692 L9.53846154,0.208269231 C9.53846154,0.0932453108 9.63268838,-5.51126096e-14 9.74892308,-5.68434189e-14 L20.9692308,-5.68434189e-14 C21.0541495,0.000161573955 21.1306506,0.0508096556 21.1632066,0.128423073 C21.1957626,0.20603649 21.1779945,0.295407581 21.1181538,0.355032051 Z" id="Path"></path>
                        <path d="M23.7895385,9.43910256 L16.9489231,9.43910256 C16.8931052,9.43910256 16.8395735,9.46104515 16.8001043,9.50010321 C16.7606351,9.53916127 16.7384615,9.59213536 16.7384615,9.64737179 L16.7384615,11.6667308 C16.7384615,11.7817547 16.6442347,11.875 16.528,11.875 L7.472,11.875 C7.3557653,11.875 7.26153846,11.7817547 7.26153846,11.6667308 L7.26153846,3.31891026 L0,3.31891026 L0,18.7917308 C0,18.9067547 0.0942268403,19 0.210461538,19 L23.7895385,19 C23.8453563,19 23.898888,18.9780574 23.9383572,18.9389994 C23.9778264,18.8999413 24,18.8469672 24,18.7917308 L24,9.64737179 C24,9.59213536 23.9778264,9.53916127 23.9383572,9.50010321 C23.898888,9.46104515 23.8453563,9.43910256 23.7895385,9.43910256 Z" id="Path"></path>
                    </g>
                    <g id="G_Arriba" transform="translate(39.000000, 12.000000)" fill="#3EFDD9">
                        <path d="M10.9747541,7 L0.255464481,7 C0.172517881,6.9998385 0.0977934527,6.9492136 0.0659935197,6.8716357 C0.0341935866,6.79405781 0.0515490645,6.70472762 0.11,6.64513043 L6.67213115,0 L10.9747541,7 Z" id="Path"></path>
                    </g>
                </g>
            </g>
        </g>
    </g>
</svg>