<?xml version="1.0" encoding="UTF-8"?>
<svg width="31px" height="21px" viewBox="0 0 31 21" version="1.1" xmlns="http://www.w3.org/2000/svg" xmlns:xlink="http://www.w3.org/1999/xlink">
    <!-- Generator: Sketch 52.4 (67378) - http://www.bohemiancoding.com/sketch -->
    <title>002-youtube</title>
    <desc>Created with Sketch.</desc>
    <g id="UI" stroke="none" stroke-width="1" fill="none" fill-rule="evenodd">
        <g id="Home" transform="translate(-857.000000, -1558.000000)">
            <g id="002-youtube" transform="translate(857.000000, 1558.000000)">
                <path d="M29.6825,2.02363636 C28.841625,0.549818182 27.9290625,0.278727273 26.071,0.175636364 C24.214875,0.0515454545 19.5474375,0 15.503875,0 C11.4525625,0 6.7831875,0.0515454545 4.929,0.173727273 C3.0748125,0.278727273 2.1603125,0.547909091 1.3116875,2.02363636 C0.445625,3.49554545 0,6.03081818 0,10.4942727 C0,10.4980909 0,10.5 0,10.5 C0,10.5038182 0,10.5057273 0,10.5057273 L0,10.5095455 C0,14.9539091 0.445625,17.5082727 1.3116875,18.9649091 C2.1603125,20.4387273 3.072875,20.706 4.9270625,20.8300909 C6.7831875,20.937 11.4525625,21 15.503875,21 C19.5474375,21 24.214875,20.937 26.0729375,20.832 C27.931,20.7079091 28.8435625,20.4406364 29.6844375,18.9668182 C30.55825,17.5101818 31,14.9558182 31,10.5114545 C31,10.5114545 31,10.5057273 31,10.5019091 C31,10.5019091 31,10.4980909 31,10.4961818 C31,6.03081818 30.55825,3.49554545 29.6825,2.02363636 Z" id="Path" fill="#F44336"></path>
                <polygon id="Path" fill="#FAFAFA" points="11.625 16.2272727 11.625 4.77272727 21.3125 10.5"></polygon>
            </g>
        </g>
    </g>
</svg>