<?xml version="1.0" encoding="UTF-8"?>
<svg width="13px" height="18px" viewBox="0 0 13 18" version="1.1" xmlns="http://www.w3.org/2000/svg" xmlns:xlink="http://www.w3.org/1999/xlink">
    <!-- Generator: Sketch 52.4 (67378) - http://www.bohemiancoding.com/sketch -->
    <title>001-man-user</title>
    <desc>Created with Sketch.</desc>
    <g id="Page-1" stroke="none" stroke-width="1" fill="none" fill-rule="evenodd">
        <g id="Home-Copy-4" transform="translate(-748.000000, -104.000000)" fill="#333334" fill-rule="nonzero">
            <g id="Submenu" transform="translate(731.000000, 0.000000)">
                <g id="001-man-user" transform="translate(15.500000, 104.000000)">
                    <path d="M7.50005677,9 C9.7090713,9 11.5,6.98530142 11.5,4.50002629 C11.5,2.01469858 10.9120118,0 7.50005677,0 C4.08810173,0 3.5,2.01469858 3.5,4.50002629 C3.5,6.98530142 5.2909287,9 7.50005677,9 Z" id="Path"></path>
                    <path d="M14.4927229,15.3039185 C14.4289868,11.0018286 13.9037629,9.77596656 9.88458388,9 C9.88458388,9 9.31882288,9.77121212 8.00014652,9.77121212 C6.68147016,9.77121212 6.11561148,9 6.11561148,9 C2.14029063,9.76750261 1.58312545,10.9751829 1.50986565,15.1641588 C1.50385835,15.5062173 1.50107448,15.5241902 1.5,15.4844828 C1.5002442,15.5588819 1.50053724,15.6964995 1.50053724,15.9364681 C1.50053724,15.9364681 2.45740788,18 8.00014652,18 C13.5427875,18 14.4997558,15.9364681 14.4997558,15.9364681 C14.4997558,15.7822884 14.4998535,15.6750784 14.5,15.6021421 C14.4989255,15.626698 14.4967766,15.5791014 14.4927229,15.3039185 Z" id="Path"></path>
                </g>
            </g>
        </g>
    </g>
</svg>